<svg xmlns="http://www.w3.org/2000/svg" xmlns:xlink="http://www.w3.org/1999/xlink" width="2000" zoomAndPan="magnify" viewBox="0 0 1500 1499.999933" height="2000" preserveAspectRatio="xMidYMid meet" version="1.0"><defs><g/><clipPath id="285882f7df"><rect x="0" width="1094" y="0" height="1500"/></clipPath><clipPath id="e355602a4c"><rect x="0" width="383" y="0" height="586"/></clipPath></defs><g transform="matrix(1, 0, 0, 1, 50, 0.000000000000112861)"><g clip-path="url(#285882f7df)"><g fill="#ffffff" fill-opacity="1"><g transform="translate(1.32219, 1369.239661)"><g><path d="M 66.28125 -1217.890625 L 66.28125 0 L 475.546875 0 L 475.546875 -183.921875 L 245.234375 -183.921875 L 245.234375 -518.640625 L 410.9375 -518.640625 L 410.9375 -714.15625 L 245.234375 -714.15625 L 245.234375 -1033.953125 L 475.546875 -1033.953125 L 475.546875 -1217.890625 Z M 66.28125 -1217.890625 "/></g></g></g><g fill="#ffffff" fill-opacity="1"><g transform="translate(510.013191, 1369.239661)"><g><path d="M 66.28125 -1217.890625 L 66.28125 0 L 245.234375 0 L 245.234375 -487.15625 C 283.898438 -487.15625 322.007812 -493.503906 359.5625 -506.203125 C 397.125 -518.910156 430.816406 -539.070312 460.640625 -566.6875 C 490.460938 -595.40625 514.488281 -632.960938 532.71875 -679.359375 C 550.945312 -725.753906 560.0625 -783.75 560.0625 -853.34375 C 560.0625 -922.9375 550.945312 -981.484375 532.71875 -1028.984375 C 514.488281 -1076.484375 490.460938 -1114.039062 460.640625 -1141.65625 C 430.816406 -1170.382812 397.125 -1190.269531 359.5625 -1201.3125 C 322.007812 -1212.363281 283.898438 -1217.890625 245.234375 -1217.890625 Z M 245.234375 -669.421875 L 245.234375 -1035.609375 C 299.359375 -1035.609375 335.8125 -1021.25 354.59375 -992.53125 C 364.53125 -978.175781 371.15625 -958.84375 374.46875 -934.53125 C 377.789062 -910.226562 379.453125 -880.957031 379.453125 -846.71875 C 379.453125 -812.476562 377.789062 -784.035156 374.46875 -761.390625 C 371.15625 -738.742188 364.53125 -720.789062 354.59375 -707.53125 C 336.914062 -682.125 300.460938 -669.421875 245.234375 -669.421875 Z M 245.234375 -669.421875 "/></g></g></g></g></g><g transform="matrix(1, 0, 0, 1, 1005, 790)"><g clip-path="url(#e355602a4c)"><g fill="#ff5757" fill-opacity="1"><g transform="translate(30.539307, 442.597845)"><g><path d="M 341.140625 19.390625 L 341.140625 136.9375 L -26.046875 136.9375 L -26.046875 19.390625 Z M 341.140625 19.390625 "/></g></g></g></g></g></svg>